<svg xmlns="http://www.w3.org/2000/svg" xmlns:xlink="http://www.w3.org/1999/xlink" width="90" height="27.738" viewBox="0 0 90 27.738"><defs><linearGradient id="a" y1="0.5" x2="0.951" y2="0.5" gradientUnits="objectBoundingBox"><stop offset="0" stop-color="#ff7b67"/><stop offset="1" stop-color="#827eff"/></linearGradient></defs><g transform="translate(-107 -148.262)"><path d="M2.336,0V-18.484H7.795A7.1,7.1,0,0,1,12.3-17.259a4.347,4.347,0,0,1,1.536,3.614,4.1,4.1,0,0,1-.781,2.5A4.264,4.264,0,0,1,10.918-9.63a4.44,4.44,0,0,1,2.6,1.586A4.422,4.422,0,0,1,14.5-5.2a4.805,4.805,0,0,1-1.581,3.825A6.479,6.479,0,0,1,8.519,0ZM3.9-8.874V-1.32H8.582a4.682,4.682,0,0,0,3.18-1.02,3.554,3.554,0,0,0,1.174-2.833,3.43,3.43,0,0,0-1.124-2.706,4.52,4.52,0,0,0-3.1-.995Zm0-1.32H8.163a4.791,4.791,0,0,0,3.028-.922,3.145,3.145,0,0,0,1.073-2.575,3.09,3.09,0,0,0-1.111-2.626,5.512,5.512,0,0,0-3.358-.846H3.9ZM33.749-8.239a10.68,10.68,0,0,1-.882,4.481,6.733,6.733,0,0,1-2.52,2.971A6.9,6.9,0,0,1,26.563.254a6.566,6.566,0,0,1-5.23-2.317A9.263,9.263,0,0,1,19.34-8.315v-1.9a10.614,10.614,0,0,1,.9-4.475,6.836,6.836,0,0,1,2.533-3,6.845,6.845,0,0,1,3.771-1.047A6.908,6.908,0,0,1,30.3-17.71a6.755,6.755,0,0,1,2.52,2.907,10.463,10.463,0,0,1,.927,4.354Zm-1.562-2.006a8.169,8.169,0,0,0-1.511-5.23,5.009,5.009,0,0,0-4.139-1.892,5,5,0,0,0-4.107,1.9,8.235,8.235,0,0,0-1.53,5.3v1.93a8.169,8.169,0,0,0,1.523,5.211A5,5,0,0,0,26.563-1.1,4.959,4.959,0,0,0,30.7-3,8.387,8.387,0,0,0,32.187-8.29ZM53.164-8.239a10.68,10.68,0,0,1-.882,4.481,6.733,6.733,0,0,1-2.52,2.971A6.9,6.9,0,0,1,45.979.254a6.566,6.566,0,0,1-5.23-2.317,9.263,9.263,0,0,1-1.993-6.252v-1.9a10.614,10.614,0,0,1,.9-4.475,6.836,6.836,0,0,1,2.533-3,6.845,6.845,0,0,1,3.771-1.047,6.908,6.908,0,0,1,3.764,1.028,6.755,6.755,0,0,1,2.52,2.907,10.463,10.463,0,0,1,.927,4.354ZM51.6-10.245a8.169,8.169,0,0,0-1.511-5.23,5.009,5.009,0,0,0-4.139-1.892,5,5,0,0,0-4.107,1.9,8.235,8.235,0,0,0-1.53,5.3v1.93A8.169,8.169,0,0,0,41.84-3.028,5,5,0,0,0,45.979-1.1,4.959,4.959,0,0,0,50.118-3,8.387,8.387,0,0,0,51.6-8.29ZM63.084-9.179l-2.6,2.564V0H58.92V-18.484h1.562v9.966l9.471-9.966H71.92l-7.744,8.227L72.517,0h-1.9ZM87.6-4.545a2.992,2.992,0,0,0-1.079-2.431,11.4,11.4,0,0,0-3.948-1.7,13.838,13.838,0,0,1-4.189-1.758,4.15,4.15,0,0,1-1.879-3.529,4.135,4.135,0,0,1,1.746-3.447,7.169,7.169,0,0,1,4.462-1.327,7.4,7.4,0,0,1,3.294.711,5.391,5.391,0,0,1,2.253,1.98,5.2,5.2,0,0,1,.8,2.831H87.489a3.884,3.884,0,0,0-1.295-3.05,5.041,5.041,0,0,0-3.479-1.152,5.479,5.479,0,0,0-3.377.947A2.956,2.956,0,0,0,78.082-14a2.8,2.8,0,0,0,1.13,2.3,10.474,10.474,0,0,0,3.618,1.57A17.006,17.006,0,0,1,86.6-8.715,5.374,5.374,0,0,1,88.53-6.97a4.367,4.367,0,0,1,.647,2.4,4.178,4.178,0,0,1-1.746,3.5,7.434,7.434,0,0,1-4.6,1.32,9.021,9.021,0,0,1-3.586-.7A5.478,5.478,0,0,1,76.768-2.4a5.047,5.047,0,0,1-.844-2.882h1.562A3.69,3.69,0,0,0,78.945-2.2a6.179,6.179,0,0,0,3.885,1.13A5.758,5.758,0,0,0,86.3-2.019,2.977,2.977,0,0,0,87.6-4.545Z" transform="translate(107 167)" fill="#999"/><path d="M1,0H89a1,1,0,0,1,0,2H1A1,1,0,0,1,1,0Z" transform="translate(107 174)" fill="url(#a)"/></g></svg>