<svg xmlns="http://www.w3.org/2000/svg" xmlns:xlink="http://www.w3.org/1999/xlink" width="125" height="62" viewBox="0 0 125 62"><defs><linearGradient id="a" x1="0.062" y1="0.163" x2="0.924" y2="0.847" gradientUnits="objectBoundingBox"><stop offset="0" stop-color="#26157c"/><stop offset="1" stop-color="#da60b2"/></linearGradient><linearGradient id="b" y1="0.221" x2="0.682" y2="0.943" gradientUnits="objectBoundingBox"><stop offset="0" stop-color="#fff" stop-opacity="0.478"/><stop offset="0.53" stop-color="#fff89a" stop-opacity="0.122"/><stop offset="1" stop-color="#fff578" stop-opacity="0"/></linearGradient><filter id="c" x="61" y="0" width="68" height="68" filterUnits="userSpaceOnUse"><feOffset dx="1" dy="2" input="SourceAlpha"/><feGaussianBlur stdDeviation="3" result="d"/><feFlood flood-opacity="0.239"/><feComposite operator="in" in2="d"/><feComposite in="SourceGraphic"/></filter><linearGradient id="e" x1="-0.02" y1="0.911" x2="0.942" y2="0.547" gradientUnits="objectBoundingBox"><stop offset="0" stop-color="#ff8fda" stop-opacity="0"/><stop offset="0.561" stop-color="#ffd9f2" stop-opacity="0.435"/><stop offset="1" stop-color="#fff" stop-opacity="0.549"/></linearGradient></defs><g transform="translate(-15 -101)"><rect width="125" height="62" rx="31" transform="translate(15 102)" fill="url(#a)"/><path d="M-842.06,382.5a6.666,6.666,0,0,0-1.515-3.925,6.666,6.666,0,0,0-3.925-1.515c0-.02,0-.04,0-.06s0-.04,0-.06a6.669,6.669,0,0,0,3.925-1.515,6.668,6.668,0,0,0,1.515-3.925h.12a6.672,6.672,0,0,0,1.515,3.925,6.673,6.673,0,0,0,3.925,1.515q0,.03,0,.06c0,.02,0,.04,0,.06a6.669,6.669,0,0,0-3.925,1.515,6.67,6.67,0,0,0-1.515,3.925h-.12Z" transform="translate(909.5 -252.5)" fill="#c76bff"/><path d="M-844.5,377.5h-.032a3.635,3.635,0,0,0-.827-2.14,3.638,3.638,0,0,0-2.141-.827q0-.016,0-.033c0-.011,0-.022,0-.033a3.64,3.64,0,0,0,2.141-.826,3.639,3.639,0,0,0,.827-2.141h.065a3.64,3.64,0,0,0,.826,2.141,3.64,3.64,0,0,0,2.141.826c0,.011,0,.022,0,.033s0,.022,0,.033a3.638,3.638,0,0,0-2.141.827,3.636,3.636,0,0,0-.826,2.14h-.033Z" transform="translate(922.5 -221.5)" fill="#cb77ff"/><path d="M-844.5,377.5h-.032a3.635,3.635,0,0,0-.827-2.14,3.638,3.638,0,0,0-2.141-.827q0-.016,0-.033c0-.011,0-.022,0-.033a3.64,3.64,0,0,0,2.141-.826,3.639,3.639,0,0,0,.827-2.141h.065a3.64,3.64,0,0,0,.826,2.141,3.64,3.64,0,0,0,2.141.826c0,.011,0,.022,0,.033s0,.022,0,.033a3.638,3.638,0,0,0-2.141.827,3.636,3.636,0,0,0-.826,2.14h-.033Z" transform="translate(875.5 -229.5)" fill="#e7bfff"/><path d="M21.972,25a6.947,6.947,0,0,1-.75-.04q-.5.04-1.012.04h-.161q-.307,0-.61-.015-.254.015-.511.015H8.75A8.75,8.75,0,0,1,8.587,7.5,12.5,12.5,0,0,1,20.048,0h.161A12.5,12.5,0,0,1,32.65,11.27,6.875,6.875,0,0,1,32.125,25Z" transform="translate(35 120)" fill="url(#b)"/><g transform="matrix(1, 0, 0, 1, 15, 101)" filter="url(#c)"><g transform="translate(69 7)" fill="#f5f5f5" stroke="#ddd" stroke-width="3"><rect width="50" height="50" rx="25" stroke="none"/><rect x="1.5" y="1.5" width="47" height="47" rx="23.5" fill="none"/></g></g><path d="M33.951,39a10.72,10.72,0,0,1-3.194-.484,31.8,31.8,0,0,1-12.234-4.973c-4.989-3.321-9.978-8.811-12.65-17.877A12.3,12.3,0,0,1,12.452,13.7a19.359,19.359,0,0,1,37.792,3.892A10.726,10.726,0,0,1,49.276,39Z" transform="translate(10 125)" fill="url(#e)"/><g transform="translate(111 113)" fill="#eee" stroke="#d9d9d9" stroke-width="3"><rect width="16" height="16" rx="8" stroke="none"/><rect x="1.5" y="1.5" width="13" height="13" rx="6.5" fill="none"/></g><g transform="translate(109 142)" fill="#eee" stroke="#d9d9d9" stroke-width="3"><rect width="11" height="11" rx="5.5" stroke="none"/><rect x="1.5" y="1.5" width="8" height="8" rx="4" fill="none"/></g><g transform="translate(90 117)" fill="#eee" stroke="#d9d9d9" stroke-width="3"><rect width="8" height="8" rx="4" stroke="none"/><rect x="1.5" y="1.5" width="5" height="5" rx="2.5" fill="none"/></g><rect width="4" height="4" rx="2" transform="translate(41 119)" fill="#d692ff"/><rect width="5" height="5" rx="2.5" transform="translate(28 111)" fill="#dfabff"/><rect width="3" height="3" rx="1.5" transform="translate(74 111)" fill="#ca71ff"/></g></svg>