<svg xmlns="http://www.w3.org/2000/svg" width="34.339" height="39.525" viewBox="0 0 34.339 39.525"><g transform="translate(-135 -9.8)"><g transform="translate(138.845 21)" fill="none"><path d="M0,0H27V22.325a6,6,0,0,1-6,6H6a6,6,0,0,1-6-6Z" stroke="none"/><path d="M 2 2.000001907348633 L 2 22.32508087158203 C 2 24.53069114685059 3.794389724731445 26.32508087158203 6 26.32508087158203 L 21 26.32508087158203 C 23.20561027526855 26.32508087158203 25 24.53069114685059 25 22.32508087158203 L 25 2.000001907348633 L 2 2.000001907348633 M 0 1.9073486328125e-06 L 27 1.9073486328125e-06 L 27 22.32508087158203 C 27 25.63879203796387 24.3137092590332 28.32508087158203 21 28.32508087158203 L 6 28.32508087158203 C 2.686290740966797 28.32508087158203 0 25.63879203796387 0 22.32508087158203 L 0 1.9073486328125e-06 Z" stroke="none" fill="#ff5353"/></g><g transform="translate(146.22 27.815)" fill="none" stroke-linecap="round"><path d="M1.527,0A1.527,1.527,0,0,1,3.055,1.527V13.008a1.527,1.527,0,0,1-3.055,0V1.527A1.527,1.527,0,0,1,1.527,0Z" stroke="none"/><path d="M 1.52746593952179 2.86102294921875e-06 C 2.371065855026245 2.86102294921875e-06 3.054935932159424 0.6838722229003906 3.054935932159424 1.527462959289551 L 3.054935932159424 13.00798225402832 C 3.054935932159424 13.85157299041748 2.371065855026245 14.53544235229492 1.52746593952179 14.53544235229492 C 0.683866024017334 14.53544235229492 -4.053115844726563e-06 13.85157299041748 -4.053115844726563e-06 13.00798225402832 L -4.053115844726563e-06 1.527462959289551 C -4.053115844726563e-06 0.6838722229003906 0.683866024017334 2.86102294921875e-06 1.52746593952179 2.86102294921875e-06 Z" stroke="none" fill="#ff5353"/></g><g transform="translate(155.192 27.815)" fill="none" stroke-linecap="round"><path d="M1.527,0A1.527,1.527,0,0,1,3.055,1.527V13.008a1.527,1.527,0,0,1-3.055,0V1.527A1.527,1.527,0,0,1,1.527,0Z" stroke="none"/><path d="M 1.52746593952179 2.86102294921875e-06 C 2.371065855026245 2.86102294921875e-06 3.054935932159424 0.6838722229003906 3.054935932159424 1.527462959289551 L 3.054935932159424 13.00798225402832 C 3.054935932159424 13.85157299041748 2.371065855026245 14.53544235229492 1.52746593952179 14.53544235229492 C 0.683866024017334 14.53544235229492 -4.053115844726563e-06 13.85157299041748 -4.053115844726563e-06 13.00798225402832 L -4.053115844726563e-06 1.527462959289551 C -4.053115844726563e-06 0.6838722229003906 0.683866024017334 2.86102294921875e-06 1.52746593952179 2.86102294921875e-06 Z" stroke="none" fill="#ff5353"/></g><g transform="translate(135 15.702)" fill="none"><path d="M3.634,0H30.7a3.634,3.634,0,1,1,0,7.268H3.634A3.634,3.634,0,0,1,3.634,0Z" stroke="none"/><path d="M 3.633857727050781 2.000001430511475 C 2.732948303222656 2.000001430511475 1.999996185302734 2.732951164245605 1.999996185302734 3.633861303329468 C 1.999996185302734 4.534770965576172 2.732948303222656 5.267721176147461 3.633857727050781 5.267721176147461 L 30.70475769042969 5.267721176147461 C 31.60566711425781 5.267721176147461 32.33861923217773 4.534770965576172 32.33861923217773 3.633861303329468 C 32.33861923217773 2.732951164245605 31.60566711425781 2.000001430511475 30.70475769042969 2.000001430511475 L 3.633857727050781 2.000001430511475 M 3.633857727050781 1.430511474609375e-06 L 30.70475769042969 1.430511474609375e-06 C 32.71167755126953 1.430511474609375e-06 34.33861923217773 1.626931190490723 34.33861923217773 3.633861303329468 C 34.33861923217773 5.640791416168213 32.71167755126953 7.267721176147461 30.70475769042969 7.267721176147461 L 3.633857727050781 7.267721176147461 C 1.626937866210938 7.267721176147461 -3.814697265625e-06 5.640791416168213 -3.814697265625e-06 3.633861303329468 C -3.814697265625e-06 1.626931190490723 1.626937866210938 1.430511474609375e-06 3.633857727050781 1.430511474609375e-06 Z" stroke="none" fill="#ff5353"/></g><g transform="translate(142.902 9.8)" fill="none"><path d="M5,0h7.764a5,5,0,0,1,5,5V7.9H0V5A5,5,0,0,1,5,0Z" stroke="none"/><path d="M 5.000000953674316 1.999998092651367 C 3.345790863037109 1.999998092651367 2.000000953674316 3.345788478851318 2.000000953674316 4.999998092651367 L 2.000000953674316 5.895238399505615 L 15.76428127288818 5.895238399505615 L 15.76428127288818 4.999998092651367 C 15.76428127288818 3.345788478851318 14.41849136352539 1.999998092651367 12.76428127288818 1.999998092651367 L 5.000000953674316 1.999998092651367 M 5.000000953674316 -1.9073486328125e-06 L 12.76428127288818 -1.9073486328125e-06 C 15.52570152282715 -1.9073486328125e-06 17.76428031921387 2.238578319549561 17.76428031921387 4.999998092651367 L 17.76428031921387 7.895238399505615 L 1.9073486328125e-06 7.895238399505615 L 1.9073486328125e-06 4.999998092651367 C 1.9073486328125e-06 2.238578319549561 2.238571166992188 -1.9073486328125e-06 5.000000953674316 -1.9073486328125e-06 Z" stroke="none" fill="#ff5353"/></g></g></svg>