<svg xmlns="http://www.w3.org/2000/svg" xmlns:xlink="http://www.w3.org/1999/xlink" width="17.961" height="19.521" viewBox="0 0 17.961 19.521"><defs><clipPath id="b"><use xlink:href="#a"/></clipPath><clipPath id="d"><use xlink:href="#c"/></clipPath></defs><g transform="translate(-134 -10)"><g transform="translate(136.395 15.153)" fill="#fff" stroke="#ff5353" stroke-width="1"><path d="M0,0H13.171a0,0,0,0,1,0,0V11.369a3,3,0,0,1-3,3H3a3,3,0,0,1-3-3V0A0,0,0,0,1,0,0Z" stroke="none"/><path d="M1,.5H12.171a.5.5,0,0,1,.5.5V11.369a2.5,2.5,0,0,1-2.5,2.5H3a2.5,2.5,0,0,1-2.5-2.5V1A.5.5,0,0,1,1,.5Z" fill="none"/></g><g transform="translate(139.987 18.745)" fill="none" stroke="#ff5353" stroke-linecap="round" stroke-width="4"><rect id="a" width="1.197" height="7.184" rx="0.599" stroke="none"/><path d="M0,2h1.197385311126709M2,0v7.184312343597412M1.197385311126709,5.184312343597412h-1.197385311126709M-0.802614688873291,7.184312343597412v-7.184312343597412" fill="none" clip-path="url(#b)"/></g><g transform="translate(144.776 18.745)" fill="none" stroke="#ff5353" stroke-linecap="round" stroke-width="4"><rect id="c" width="1.197" height="7.184" rx="0.599" stroke="none"/><path d="M0,2h1.197385311126709M2,0v7.184312343597412M1.197385311126709,5.184312343597412h-1.197385311126709M-0.802614688873291,7.184312343597412v-7.184312343597412" fill="none" clip-path="url(#d)"/></g><g transform="translate(134 12.758)" fill="#fff" stroke="#ff5353" stroke-width="1"><rect width="17.961" height="3.592" rx="1.796" stroke="none"/><rect x="0.5" y="0.5" width="16.961" height="2.592" rx="1.296" fill="none"/></g><g transform="translate(138.39 10)" fill="#fff" stroke="#ff5353" stroke-width="1"><path d="M3,0H5.78a3,3,0,0,1,3,3v.9a0,0,0,0,1,0,0H0a0,0,0,0,1,0,0V3A3,3,0,0,1,3,0Z" stroke="none"/><path d="M2.919.5H5.862A2.419,2.419,0,0,1,8.28,2.919v0A.484.484,0,0,1,7.8,3.4H.984A.484.484,0,0,1,.5,2.919v0A2.419,2.419,0,0,1,2.919.5Z" fill="none"/></g></g></svg>