<svg xmlns="http://www.w3.org/2000/svg" width="29.5" height="29.5" viewBox="0 0 29.5 29.5"><g transform="translate(-186.25 -210.5)"><g transform="translate(190 215)" fill="none" stroke="#ff5353" stroke-width="2.5"><path d="M0,0H22a0,0,0,0,1,0,0V21a4,4,0,0,1-4,4H4a4,4,0,0,1-4-4V0A0,0,0,0,1,0,0Z" stroke="none"/><path d="M2.5,1.25h17A1.25,1.25,0,0,1,20.75,2.5V21A2.75,2.75,0,0,1,18,23.75H4A2.75,2.75,0,0,1,1.25,21V2.5A1.25,1.25,0,0,1,2.5,1.25Z" fill="none"/></g><line y2="10" transform="translate(197.5 222.5)" fill="none" stroke="#ff5353" stroke-linecap="round" stroke-width="2.5"/><line y2="10" transform="translate(204.5 222.5)" fill="none" stroke="#ff5353" stroke-linecap="round" stroke-width="2.5"/><line x2="27" transform="translate(187.5 216.2)" fill="none" stroke="#ff5353" stroke-linecap="round" stroke-width="2.5"/><g transform="translate(194 210.5)" fill="none" stroke="#ff5353" stroke-width="2.5"><path d="M4,0h6a4,4,0,0,1,4,4V7a0,0,0,0,1,0,0H0A0,0,0,0,1,0,7V4A4,4,0,0,1,4,0Z" stroke="none"/><path d="M4,1.25h6A2.75,2.75,0,0,1,12.75,4v.5A1.25,1.25,0,0,1,11.5,5.75h-9A1.25,1.25,0,0,1,1.25,4.5V4A2.75,2.75,0,0,1,4,1.25Z" fill="none"/></g></g></svg>