<svg xmlns="http://www.w3.org/2000/svg" width="23.817" height="23.313" viewBox="0 0 23.817 23.313"><path d="M-1422.3-2401.25h-.75v-5.377h-5.181v5.377h-2.362a2.649,2.649,0,0,1-1.954-.746,3.009,3.009,0,0,1-.8-2.007v-6.247h-2.25a1.108,1.108,0,0,1-1.08-.646c-.119-.286-.205-.879.55-1.635l10-10,.533-.533.53.534,10.021,10.119c.7.7.613,1.26.5,1.533a1.078,1.078,0,0,1-1.053.627h-2.25v6.25a3.238,3.238,0,0,1-.329,1.336,2.559,2.559,0,0,1-2.421,1.415Z" transform="translate(1437.515 2423.813)" fill="none" stroke="#777" stroke-linecap="round" stroke-linejoin="round" stroke-width="1.5"/></svg>