<svg xmlns="http://www.w3.org/2000/svg" width="18" height="18" viewBox="0 0 18 18"><g transform="translate(-347 -17)"><g transform="translate(347 17)" fill="none"><path d="M9,0A9,9,0,1,1,0,9,9,9,0,0,1,9,0Z" stroke="none"/><path d="M 9 1 C 4.588789939880371 1 1 4.588789939880371 1 9 C 1 13.41121006011963 4.588789939880371 17 9 17 C 13.41121006011963 17 17 13.41121006011963 17 9 C 17 4.588789939880371 13.41121006011963 1 9 1 M 9 0 C 13.97056007385254 0 18 4.029439926147461 18 9 C 18 13.97056007385254 13.97056007385254 18 9 18 C 4.029439926147461 18 0 13.97056007385254 0 9 C 0 4.029439926147461 4.029439926147461 0 9 0 Z" stroke="none" fill="#777"/></g><g transform="translate(-1 -1)"><path d="M175,206a1,1,0,1,1,1,1A1,1,0,0,1,175,206Zm-4,0a1,1,0,1,1,1,1A1,1,0,0,1,171,206Zm-4,0a1,1,0,1,1,1,1A1,1,0,0,1,167,206Z" transform="translate(185 -179)" fill="#777"/></g></g></svg>