<svg xmlns="http://www.w3.org/2000/svg" xmlns:xlink="http://www.w3.org/1999/xlink" width="125" height="62" viewBox="0 0 125 62"><defs><linearGradient id="a" x1="0.872" y1="0.039" x2="0.422" y2="1" gradientUnits="objectBoundingBox"><stop offset="0" stop-color="#ffe991"/><stop offset="1" stop-color="#ffc400"/></linearGradient><linearGradient id="b" x1="-0.051" y1="0.375" x2="0.763" y2="1" gradientUnits="objectBoundingBox"><stop offset="0" stop-color="#fff"/><stop offset="1" stop-color="#fff578" stop-opacity="0"/></linearGradient><linearGradient id="c" y1="0.643" x2="0.96" y2="0.82" gradientUnits="objectBoundingBox"><stop offset="0" stop-color="#ffea85"/><stop offset="0.477" stop-color="#fff" stop-opacity="0.537"/><stop offset="1" stop-color="#ffef6a" stop-opacity="0"/></linearGradient><filter id="d" x="0" y="0" width="62" height="62" filterUnits="userSpaceOnUse"><feOffset input="SourceAlpha"/><feGaussianBlur stdDeviation="2" result="e"/><feFlood flood-opacity="0.102"/><feComposite operator="in" in2="e"/><feComposite in="SourceGraphic"/></filter></defs><g transform="translate(-19 -13)"><rect width="125" height="62" rx="31" transform="translate(19 13)" fill="url(#a)"/><path d="M21.972,25a6.947,6.947,0,0,1-.75-.04q-.5.04-1.012.04h-.161q-.307,0-.61-.015-.254.015-.511.015H8.75A8.75,8.75,0,0,1,8.587,7.5,12.5,12.5,0,0,1,20.048,0h.161A12.5,12.5,0,0,1,32.65,11.27,6.875,6.875,0,0,1,32.125,25Z" transform="translate(78 30)" fill="url(#b)"/><path d="M26.383,39H12.649a12.65,12.65,0,0,1-.2-25.3,19.359,19.359,0,0,1,37.791,3.88c4.92.335,4.538,3.356,1.381,7.777a31.491,31.491,0,0,1-9.858,9.4,41.023,41.023,0,0,1-4.509,2.1l-.137.106s-.7.275-1.867.623c-.426.14-.862.274-1.3.4a4.459,4.459,0,0,1-.661.131A30.141,30.141,0,0,1,26.423,39Z" transform="translate(87 36)" fill="url(#c)"/><g transform="matrix(1, 0, 0, 1, 19, 13)" filter="url(#d)"><g transform="translate(6 6)" fill="#fff" stroke="#f5f5f5" stroke-width="3"><rect width="50" height="50" rx="25" stroke="none"/><rect x="1.5" y="1.5" width="47" height="47" rx="23.5" fill="none"/></g></g><rect width="22" height="2" rx="1" transform="translate(80 43)" fill="#fff"/><rect width="15" height="2" rx="1" transform="matrix(0.966, -0.259, 0.259, 0.966, 78.15, 29.14)" fill="#fff"/><rect width="15" height="2" rx="1" transform="matrix(0.966, 0.259, -0.259, 0.966, 78.668, 56.481)" fill="#fff"/><rect width="4" height="2" rx="1" transform="translate(69.808 19.778) rotate(-45)" fill="#fff"/><rect width="4" height="2" rx="1" transform="translate(71.222 66.536) rotate(45)" fill="#fff"/></g></svg>