<svg xmlns="http://www.w3.org/2000/svg" width="20.711" height="21.094" viewBox="0 0 20.711 21.094"><g transform="translate(0 0.094)"><g transform="translate(0 1.276)" fill="none" stroke-linecap="round" stroke-dasharray="41 21"><path d="M15.168,19.724H4a4,4,0,0,1-4-4V4A4,4,0,0,1,4,0H15.168a4,4,0,0,1,4,4V15.724A4,4,0,0,1,15.168,19.724Z" stroke="none"/><path d="M 15.16821670532227 19.72369766235352 L 3.999996423721313 19.72369766235352 C 1.79085648059845 19.72369766235352 -3.554687509677024e-06 17.93283653259277 -3.554687509677024e-06 15.7236967086792 C -3.554687509677024e-06 15.7236967086792 -3.554687509677024e-06 3.999996900558472 -3.554687509677024e-06 3.999996900558472 C -3.554687509677024e-06 1.790856957435608 1.79085648059845 -3.076171879001777e-06 3.999996423721313 -3.076171879001777e-06 C 3.999996423721313 -3.076171879001777e-06 9.540236473083496 -3.076171879001777e-06 9.540236473083496 -3.076171879001777e-06 C 10.09252643585205 -3.076171879001777e-06 10.5402364730835 0.4477169215679169 10.5402364730835 0.9999969005584717 C 10.5402364730835 1.552286982536316 10.09252643585205 1.999996900558472 9.540236473083496 1.999996900558472 L 3.999996423721313 1.999996900558472 C 2.897196531295776 1.999996900558472 1.999996423721313 2.897197008132935 1.999996423721313 3.999996900558472 L 1.999996423721313 15.7236967086792 C 1.999996423721313 16.82649612426758 2.897196531295776 17.72369766235352 3.999996423721313 17.72369766235352 L 15.16821670532227 17.72369766235352 C 15.16821670532227 17.72369766235352 15.16821670532227 17.72369766235352 15.16821670532227 17.72369766235352 C 16.27101707458496 17.72369766235352 17.16821670532227 16.82649612426758 17.16821670532227 15.7236967086792 L 17.16821670532227 13.08809661865234 C 17.16821670532227 12.53581714630127 17.61593627929688 12.08809661865234 18.16821670532227 12.08809661865234 C 18.72050666809082 12.08809661865234 19.16821670532227 12.53581714630127 19.16821670532227 13.08809661865234 L 19.16821670532227 15.7236967086792 C 19.16821670532227 17.93283653259277 17.37735557556152 19.72369766235352 15.16821670532227 19.72369766235352 Z" stroke="none" fill="#999"/></g><path d="M.953,11.315.9,11.276,9.167.7h0L9.191.668a1.993,1.993,0,1,1,2.869,2.74l-8.045,10.3-.057-.044L-.211,15.9Z" transform="matrix(1, -0.017, 0.017, 1, 7.68, 0.228)" fill="#999"/></g></svg>