<svg xmlns="http://www.w3.org/2000/svg" width="17.687" height="17.687" viewBox="0 0 17.687 17.687"><g transform="translate(0.498 0.5)"><path d="M16.282,8.867,8.406,1A3.411,3.411,0,0,0,7.283.292,3.4,3.4,0,0,0,5.994,0H1.412A1.355,1.355,0,0,0,.421.419,1.355,1.355,0,0,0,0,1.41V5.992A3.4,3.4,0,0,0,.294,7.281,3.282,3.282,0,0,0,1,8.393L8.88,16.279a1.349,1.349,0,0,0,.991.408,1.411,1.411,0,0,0,1-.408l5.408-5.419a1.349,1.349,0,0,0,.407-.991A1.411,1.411,0,0,0,16.282,8.867ZM4.523,4.521a1.359,1.359,0,0,1-1,.413,1.41,1.41,0,0,1-1.41-1.41,1.41,1.41,0,0,1,1.41-1.41,1.41,1.41,0,0,1,1.41,1.41A1.358,1.358,0,0,1,4.523,4.521Z" fill="none" stroke="#555" stroke-width="1"/></g></svg>